<svg width="88" height="32" viewBox="0 0 88 32" fill="none" xmlns="http://www.w3.org/2000/svg">
<rect x="0.5" y="0.5" width="31" height="31" rx="8.61111" fill="#00D2FF"/>
<path d="M39.6843 23V11.6747H43.3506V22.0114L41.6038 20.2646H47.8519V23H39.6843ZM54.1788 23.2591C53.0783 23.2591 52.0673 23.0352 51.1459 22.5873C50.2309 22.1394 49.4983 21.474 48.948 20.591C48.3978 19.708 48.1226 18.6202 48.1226 17.3277C48.1226 16.0289 48.3914 14.9475 48.9288 14.0837C49.4727 13.2135 50.2021 12.5609 51.1171 12.1258C52.0385 11.6843 53.0591 11.4635 54.1788 11.4635C55.3049 11.4635 56.3255 11.6843 57.2405 12.1258C58.1555 12.5609 58.8817 13.2135 59.4192 14.0837C59.963 14.9475 60.235 16.0289 60.235 17.3277C60.235 18.6202 59.9598 19.708 59.4096 20.591C58.8593 21.474 58.1235 22.1394 57.2021 22.5873C56.2871 23.0352 55.2793 23.2591 54.1788 23.2591ZM54.1788 20.3798C54.5819 20.3798 54.9594 20.303 55.3113 20.1495C55.6696 19.9895 55.9576 19.692 56.1751 19.2569C56.3991 18.8154 56.511 18.1723 56.511 17.3277C56.511 16.4767 56.3991 15.8369 56.1751 15.4082C55.9512 14.9731 55.66 14.682 55.3017 14.5348C54.9498 14.3812 54.5755 14.3045 54.1788 14.3045C53.7821 14.3045 53.4046 14.3812 53.0463 14.5348C52.6879 14.682 52.3968 14.9731 52.1729 15.4082C51.9553 15.8369 51.8465 16.4767 51.8465 17.3277C51.8465 18.1723 51.9585 18.8154 52.1825 19.2569C52.4064 19.692 52.6943 19.9895 53.0463 20.1495C53.4046 20.303 53.7821 20.3798 54.1788 20.3798ZM67.1678 23.2111C66.0801 23.2111 65.1139 22.9968 64.2693 22.5681C63.4311 22.1394 62.7721 21.4932 62.2922 20.6294C61.8187 19.7656 61.5819 18.6842 61.5819 17.3853C61.5819 16.0864 61.8507 14.9987 62.3881 14.1221C62.932 13.2391 63.655 12.5769 64.5572 12.1354C65.4658 11.6875 66.4704 11.4635 67.5709 11.4635C68.5307 11.4635 69.3465 11.6011 70.0183 11.8762C70.6902 12.1514 71.234 12.5033 71.6499 12.932C72.0658 13.3543 72.3698 13.7958 72.5617 14.2565C72.7537 14.7108 72.8497 15.1203 72.8497 15.485C72.8497 15.4978 72.8497 15.5138 72.8497 15.533C72.8497 15.5522 72.8497 15.5682 72.8497 15.581H69.2889C69.2889 15.5682 69.2889 15.5522 69.2889 15.533C69.2889 15.5138 69.2889 15.4978 69.2889 15.485C69.2889 15.3506 69.2473 15.2162 69.1641 15.0819C69.081 14.9411 68.9626 14.8131 68.809 14.698C68.6619 14.5764 68.4827 14.4804 68.2715 14.41C68.0604 14.3397 67.8269 14.3045 67.5709 14.3045C67.219 14.3045 66.8639 14.378 66.5056 14.5252C66.1473 14.666 65.8497 14.9571 65.613 15.3986C65.3762 15.8337 65.2579 16.4959 65.2579 17.3853C65.2579 18.102 65.325 18.665 65.4594 19.0745C65.5938 19.4776 65.7729 19.772 65.9969 19.9575C66.2208 20.1431 66.464 20.2615 66.7263 20.3126C66.9951 20.3574 67.2638 20.3798 67.5325 20.3798C67.9228 20.3798 68.2588 20.3254 68.5403 20.2167C68.8282 20.1015 69.0586 19.9735 69.2313 19.8328C69.4041 19.692 69.5129 19.5736 69.5576 19.4776V19.4488H67.5133V16.915H72.7921V23H71.0933L70.719 21.6083C70.6678 21.7491 70.5142 21.9474 70.2583 22.2034C70.0087 22.4593 69.6312 22.6929 69.1257 22.904C68.6267 23.1088 67.974 23.2111 67.1678 23.2111ZM80.5538 23.2591C79.4532 23.2591 78.4423 23.0352 77.5209 22.5873C76.6059 22.1394 75.8733 21.474 75.323 20.591C74.7728 19.708 74.4976 18.6202 74.4976 17.3277C74.4976 16.0289 74.7664 14.9475 75.3038 14.0837C75.8477 13.2135 76.5771 12.5609 77.4921 12.1258C78.4135 11.6843 79.434 11.4635 80.5538 11.4635C81.6799 11.4635 82.7005 11.6843 83.6154 12.1258C84.5304 12.5609 85.2567 13.2135 85.7941 14.0837C86.338 14.9475 86.6099 16.0289 86.6099 17.3277C86.6099 18.6202 86.3348 19.708 85.7845 20.591C85.2343 21.474 84.4984 22.1394 83.5771 22.5873C82.6621 23.0352 81.6543 23.2591 80.5538 23.2591ZM80.5538 20.3798C80.9569 20.3798 81.3344 20.303 81.6863 20.1495C82.0446 19.9895 82.3326 19.692 82.5501 19.2569C82.774 18.8154 82.886 18.1723 82.886 17.3277C82.886 16.4767 82.774 15.8369 82.5501 15.4082C82.3262 14.9731 82.035 14.682 81.6767 14.5348C81.3248 14.3812 80.9505 14.3045 80.5538 14.3045C80.1571 14.3045 79.7796 14.3812 79.4212 14.5348C79.0629 14.682 78.7718 14.9731 78.5479 15.4082C78.3303 15.8369 78.2215 16.4767 78.2215 17.3277C78.2215 18.1723 78.3335 18.8154 78.5575 19.2569C78.7814 19.692 79.0693 19.9895 79.4212 20.1495C79.7796 20.303 80.1571 20.3798 80.5538 20.3798Z" fill="#4B6D85"/>
</svg>
